<svg id="Layer_1" enable-background="new 0 0 512 512" height="512" viewBox="0 0 512 512" width="512" xmlns="http://www.w3.org/2000/svg"><g><g><path d="m256 116.457h-16c-13.255 0-24-10.745-24-24 0-13.255 10.745-24 24-24h16c13.255 0 24 10.745 24 24 0 13.255-10.745 24-24 24z" fill="#cd3232"/></g><g><path d="m464 460.457h-416c-17.673 0-32-14.327-32-32v-160c0-17.673 14.327-32 32-32h416c17.673 0 32 14.327 32 32v160c0 17.673-14.327 32-32 32z" fill="#cd3232"/></g><g><path d="m432 460.457h-384c-17.673 0-32-14.327-32-32v-160c0-17.673 14.327-32 32-32h384c17.673 0 32 14.327 32 32v160c0 17.673-14.327 32-32 32z" fill="#ff4646"/></g><g><circle cx="96" cy="268.457" fill="#cd3232" r="16"/></g><g><circle cx="384" cy="268.457" fill="#cd3232" r="16"/></g><g><path d="m384.008 277.371c-2.993 0-5.916-1.507-7.6-4.243l-119.614-194.373c-3.562-5.789-9.998-9.384-16.794-9.384s-13.232 3.596-16.794 9.384l-119.615 194.373c-2.58 4.193-8.071 5.498-12.263 2.92-4.192-2.58-5.5-8.07-2.92-12.263l119.615-194.373c6.783-11.022 19.036-17.869 31.977-17.869s25.194 6.847 31.977 17.869l119.614 194.374c2.58 4.192 1.272 9.683-2.92 12.263-1.456.895-3.069 1.322-4.663 1.322z" fill="#463c4b"/></g><g><circle cx="240" cy="92.457" fill="#ff4646" r="24"/></g><g><g><path d="m72 416.457c-11.028 0-20-8.972-20-20v-8c0-2.209 1.791-4 4-4s4 1.791 4 4v8c0 6.617 5.383 12 12 12s12-5.383 12-12v-22.111c0-4.575-2.542-8.688-6.634-10.733l-14.311-7.155c-6.819-3.411-11.055-10.265-11.055-17.89v-22.111c0-11.028 8.972-20 20-20s20 8.972 20 20v8c0 2.209-1.791 4-4 4s-4-1.791-4-4v-8c0-6.617-5.383-12-12-12s-12 5.383-12 12v22.111c0 4.575 2.542 8.688 6.634 10.733l14.311 7.155c6.819 3.41 11.055 10.265 11.055 17.889v22.111c0 11.029-8.972 20.001-20 20.001z" fill="#32283c"/></g><g><path d="m128 416.457c-11.028 0-20-8.972-20-20v-80c0-11.028 8.972-20 20-20s20 8.972 20 20v80c0 11.028-8.972 20-20 20zm0-112c-6.617 0-12 5.383-12 12v80c0 6.617 5.383 12 12 12s12-5.383 12-12v-80c0-6.617-5.383-12-12-12z" fill="#32283c"/></g><g><path d="m304 416.457c-11.028 0-20-8.972-20-20v-80c0-11.028 8.972-20 20-20s20 8.972 20 20v80c0 11.028-8.972 20-20 20zm0-112c-6.617 0-12 5.383-12 12v80c0 6.617 5.383 12 12 12s12-5.383 12-12v-80c0-6.617-5.383-12-12-12z" fill="#e6e6eb"/></g><g><path d="m200 416.457h-16c-11.028 0-20-8.972-20-20v-96c0-2.209 1.791-4 4-4s4 1.791 4 4v96c0 6.617 5.383 12 12 12h16c2.209 0 4 1.791 4 4s-1.791 4-4 4z" fill="#32283c"/></g><g><path d="m232 416.457h-16c-2.209 0-4-1.791-4-4v-112c0-2.209 1.791-4 4-4h16c11.028 0 20 8.972 20 20v80c0 11.028-8.972 20-20 20zm-12-8h12c6.617 0 12-5.383 12-12v-80c0-6.617-5.383-12-12-12h-12z" fill="#32283c"/></g><g><path d="m360 416.457c-11.028 0-20-8.972-20-20v-96c0-2.209 1.791-4 4-4s4 1.791 4 4v96c0 6.617 5.383 12 12 12s12-5.383 12-12v-96c0-2.209 1.791-4 4-4s4 1.791 4 4v96c0 11.028-8.972 20-20 20z" fill="#e6e6eb"/></g><path d="m424 296.457h-32c-2.209 0-4 1.791-4 4s1.791 4 4 4h12v108c0 2.209 1.791 4 4 4s4-1.791 4-4v-108h12c2.209 0 4-1.791 4-4s-1.791-4-4-4z" fill="#e6e6eb"/></g></g></svg>